<?xml version="1.0" encoding="UTF-8" standalone="no"?>
<!DOCTYPE svg PUBLIC "-//W3C//DTD SVG 1.1//EN"
 "http://www.w3.org/Graphics/SVG/1.1/DTD/svg11.dtd">
<!-- Generated by graphviz version 2.47.0 (20210316.0004)
 -->
<!-- Title: dependencies Pages: 1 -->
<svg width="957pt" height="284pt"
 viewBox="0.00 0.00 957.00 284.00" xmlns="http://www.w3.org/2000/svg" xmlns:xlink="http://www.w3.org/1999/xlink">
<g id="graph0" class="graph" transform="scale(1 1) rotate(0) translate(4 280)">
<title>dependencies</title>
<polygon fill="white" stroke="transparent" points="-4,4 -4,-280 953,-280 953,4 -4,4"/>
<text text-anchor="start" x="453.51" y="-42.4" font-family="Times-12" font-weight="bold" font-size="14.00">Legend</text>
<polygon fill="#ffffb3" stroke="transparent" points="240.5,-10 240.5,-30 260.5,-30 260.5,-10 240.5,-10"/>
<text text-anchor="start" x="264.13" y="-15.4" font-family="Times-12" font-size="14.00"> &#160;Declarations</text>
<polygon fill="#8dd3c7" stroke="transparent" points="353.5,-10 353.5,-30 373.5,-30 373.5,-10 353.5,-10"/>
<text text-anchor="start" x="377.23" y="-15.4" font-family="Times-12" font-size="14.00"> &#160;Module</text>
<polygon fill="#80b1d3" stroke="transparent" points="439.5,-10 439.5,-30 459.5,-30 459.5,-10 439.5,-10"/>
<text text-anchor="start" x="463.28" y="-15.4" font-family="Times-12" font-size="14.00"> &#160;Bootstrap</text>
<polygon fill="#fdb462" stroke="transparent" points="536.5,-10 536.5,-30 556.5,-30 556.5,-10 536.5,-10"/>
<text text-anchor="start" x="560.17" y="-15.4" font-family="Times-12" font-size="14.00"> &#160;Providers</text>
<polygon fill="#fb8072" stroke="transparent" points="632.5,-10 632.5,-30 652.5,-30 652.5,-10 632.5,-10"/>
<text text-anchor="start" x="656.23" y="-15.4" font-family="Times-12" font-size="14.00"> &#160;Exports</text>
<g id="clust1" class="cluster">
<title>cluster_AppModule</title>
<polygon fill="none" stroke="black" stroke-dasharray="1,5" points="8,-70 8,-268 797,-268 797,-70 8,-70"/>
</g>
<g id="clust2" class="cluster">
<title>cluster_AppModule_declarations</title>
<polygon fill="none" stroke="black" points="168,-78 168,-130 789,-130 789,-78 168,-78"/>
</g>
<g id="clust7" class="cluster">
<title>cluster_AppModule_imports</title>
<polygon fill="none" stroke="black" points="16,-78 16,-130 160,-130 160,-78 16,-78"/>
</g>
<g id="clust9" class="cluster">
<title>cluster_AppModule_bootstrap</title>
<polygon fill="none" stroke="black" points="596,-208 596,-260 720,-260 720,-208 596,-208"/>
</g>
<g id="clust17" class="cluster">
<title>cluster_AppServerModule</title>
<polygon fill="none" stroke="black" stroke-dasharray="1,5" points="805,-208 805,-260 941,-260 941,-208 805,-208"/>
</g>
<!-- AppComponent -->
<g id="node1" class="node">
<title>AppComponent</title>
<polygon fill="#ffffb3" stroke="black" points="780.94,-122 675.06,-122 675.06,-86 780.94,-86 780.94,-122"/>
<text text-anchor="middle" x="728" y="-99.8" font-family="Times,serif" font-size="14.00">AppComponent</text>
</g>
<!-- AppModule -->
<g id="node5" class="node">
<title>AppModule</title>
<polygon fill="#8dd3c7" stroke="black" points="630.66,-187 627.66,-191 606.66,-191 603.66,-187 547.34,-187 547.34,-151 630.66,-151 630.66,-187"/>
<text text-anchor="middle" x="589" y="-164.8" font-family="Times,serif" font-size="14.00">AppModule</text>
</g>
<!-- AppComponent&#45;&gt;AppModule -->
<g id="edge1" class="edge">
<title>AppComponent&#45;&gt;AppModule</title>
<path fill="none" stroke="black" d="M693.88,-122.02C693.88,-139.37 693.88,-163 693.88,-163 693.88,-163 640.75,-163 640.75,-163"/>
<polygon fill="black" stroke="black" points="640.75,-159.5 630.75,-163 640.75,-166.5 640.75,-159.5"/>
</g>
<!-- ClientListComponent -->
<g id="node2" class="node">
<title>ClientListComponent</title>
<polygon fill="#ffffb3" stroke="black" points="657.83,-122 520.17,-122 520.17,-86 657.83,-86 657.83,-122"/>
<text text-anchor="middle" x="589" y="-99.8" font-family="Times,serif" font-size="14.00">ClientListComponent</text>
</g>
<!-- ClientListComponent&#45;&gt;AppModule -->
<g id="edge2" class="edge">
<title>ClientListComponent&#45;&gt;AppModule</title>
<path fill="none" stroke="black" d="M589,-122.11C589,-122.11 589,-140.99 589,-140.99"/>
<polygon fill="black" stroke="black" points="585.5,-140.99 589,-150.99 592.5,-140.99 585.5,-140.99"/>
</g>
<!-- CreateClientComponent -->
<g id="node3" class="node">
<title>CreateClientComponent</title>
<polygon fill="#ffffb3" stroke="black" points="502.09,-122 349.91,-122 349.91,-86 502.09,-86 502.09,-122"/>
<text text-anchor="middle" x="426" y="-99.8" font-family="Times,serif" font-size="14.00">CreateClientComponent</text>
</g>
<!-- CreateClientComponent&#45;&gt;AppModule -->
<g id="edge3" class="edge">
<title>CreateClientComponent&#45;&gt;AppModule</title>
<path fill="none" stroke="black" d="M426,-122.03C426,-138.4 426,-160 426,-160 426,-160 537.02,-160 537.02,-160"/>
<polygon fill="black" stroke="black" points="537.02,-163.5 547.02,-160 537.02,-156.5 537.02,-163.5"/>
</g>
<!-- UpdateClientComponent -->
<g id="node4" class="node">
<title>UpdateClientComponent</title>
<polygon fill="#ffffb3" stroke="black" points="331.98,-122 176.02,-122 176.02,-86 331.98,-86 331.98,-122"/>
<text text-anchor="middle" x="254" y="-99.8" font-family="Times,serif" font-size="14.00">UpdateClientComponent</text>
</g>
<!-- UpdateClientComponent&#45;&gt;AppModule -->
<g id="edge4" class="edge">
<title>UpdateClientComponent&#45;&gt;AppModule</title>
<path fill="none" stroke="black" d="M254,-122.11C254,-141.34 254,-169 254,-169 254,-169 537.25,-169 537.25,-169"/>
<polygon fill="black" stroke="black" points="537.25,-172.5 547.25,-169 537.25,-165.5 537.25,-172.5"/>
</g>
<!-- AppComponent  -->
<g id="node7" class="node">
<title>AppComponent </title>
<polygon fill="#80b1d3" stroke="black" points="712.44,-252 603.56,-252 603.56,-216 712.44,-216 712.44,-252"/>
<text text-anchor="middle" x="658" y="-229.8" font-family="Times,serif" font-size="14.00">AppComponent </text>
</g>
<!-- AppModule&#45;&gt;AppComponent  -->
<g id="edge6" class="edge">
<title>AppModule&#45;&gt;AppComponent </title>
<path fill="none" stroke="black" stroke-dasharray="1,5" d="M617.18,-187.11C617.18,-187.11 617.18,-205.99 617.18,-205.99"/>
<polygon fill="black" stroke="black" points="613.68,-205.99 617.18,-215.99 620.68,-205.99 613.68,-205.99"/>
</g>
<!-- AppServerModule -->
<g id="node8" class="node">
<title>AppServerModule</title>
<polygon fill="#8dd3c7" stroke="black" points="933.19,-252 930.19,-256 909.19,-256 906.19,-252 812.81,-252 812.81,-216 933.19,-216 933.19,-252"/>
<text text-anchor="middle" x="873" y="-229.8" font-family="Times,serif" font-size="14.00">AppServerModule</text>
</g>
<!-- AppModule&#45;&gt;AppServerModule -->
<g id="edge7" class="edge">
<title>AppModule&#45;&gt;AppServerModule</title>
<path fill="none" stroke="black" d="M630.91,-175C709.9,-175 873,-175 873,-175 873,-175 873,-205.98 873,-205.98"/>
<polygon fill="black" stroke="black" points="869.5,-205.98 873,-215.98 876.5,-205.98 869.5,-205.98"/>
</g>
<!-- AppRoutingModule -->
<g id="node6" class="node">
<title>AppRoutingModule</title>
<polygon fill="#8dd3c7" stroke="black" points="152.27,-122 149.27,-126 128.27,-126 125.27,-122 23.73,-122 23.73,-86 152.27,-86 152.27,-122"/>
<text text-anchor="middle" x="88" y="-99.8" font-family="Times,serif" font-size="14.00">AppRoutingModule</text>
</g>
<!-- AppRoutingModule&#45;&gt;AppModule -->
<g id="edge5" class="edge">
<title>AppRoutingModule&#45;&gt;AppModule</title>
<path fill="none" stroke="black" d="M88,-122.29C88,-144.21 88,-178 88,-178 88,-178 537.15,-178 537.15,-178"/>
<polygon fill="black" stroke="black" points="537.15,-181.5 547.15,-178 537.15,-174.5 537.15,-181.5"/>
</g>
<!-- AppServerModule&#45;&gt;AppComponent  -->
<g id="edge8" class="edge">
<title>AppServerModule&#45;&gt;AppComponent </title>
<path fill="none" stroke="black" stroke-dasharray="1,5" d="M812.82,-234C812.82,-234 722.65,-234 722.65,-234"/>
<polygon fill="black" stroke="black" points="722.65,-230.5 712.65,-234 722.65,-237.5 722.65,-230.5"/>
</g>
</g>
</svg>
