<?xml version="1.0" encoding="UTF-8" standalone="no"?>
<!DOCTYPE svg PUBLIC "-//W3C//DTD SVG 1.1//EN"
 "http://www.w3.org/Graphics/SVG/1.1/DTD/svg11.dtd">
<!-- Generated by graphviz version 2.47.0 (20210316.0004)
 -->
<!-- Title: dependencies Pages: 1 -->
<svg width="813pt" height="284pt"
 viewBox="0.00 0.00 813.00 284.00" xmlns="http://www.w3.org/2000/svg" xmlns:xlink="http://www.w3.org/1999/xlink">
<g id="graph0" class="graph" transform="scale(1 1) rotate(0) translate(4 280)">
<title>dependencies</title>
<polygon fill="white" stroke="transparent" points="-4,4 -4,-280 809,-280 809,4 -4,4"/>
<text text-anchor="start" x="381.51" y="-42.4" font-family="Times-12" font-weight="bold" font-size="14.00">Legend</text>
<polygon fill="#ffffb3" stroke="transparent" points="168.5,-10 168.5,-30 188.5,-30 188.5,-10 168.5,-10"/>
<text text-anchor="start" x="192.13" y="-15.4" font-family="Times-12" font-size="14.00"> &#160;Declarations</text>
<polygon fill="#8dd3c7" stroke="transparent" points="281.5,-10 281.5,-30 301.5,-30 301.5,-10 281.5,-10"/>
<text text-anchor="start" x="305.23" y="-15.4" font-family="Times-12" font-size="14.00"> &#160;Module</text>
<polygon fill="#80b1d3" stroke="transparent" points="367.5,-10 367.5,-30 387.5,-30 387.5,-10 367.5,-10"/>
<text text-anchor="start" x="391.28" y="-15.4" font-family="Times-12" font-size="14.00"> &#160;Bootstrap</text>
<polygon fill="#fdb462" stroke="transparent" points="464.5,-10 464.5,-30 484.5,-30 484.5,-10 464.5,-10"/>
<text text-anchor="start" x="488.17" y="-15.4" font-family="Times-12" font-size="14.00"> &#160;Providers</text>
<polygon fill="#fb8072" stroke="transparent" points="560.5,-10 560.5,-30 580.5,-30 580.5,-10 560.5,-10"/>
<text text-anchor="start" x="584.23" y="-15.4" font-family="Times-12" font-size="14.00"> &#160;Exports</text>
<g id="clust1" class="cluster">
<title>cluster_AppModule</title>
<polygon fill="none" stroke="black" stroke-dasharray="1,5" points="8,-70 8,-268 797,-268 797,-70 8,-70"/>
</g>
<g id="clust2" class="cluster">
<title>cluster_AppModule_declarations</title>
<polygon fill="none" stroke="black" points="168,-78 168,-130 789,-130 789,-78 168,-78"/>
</g>
<g id="clust7" class="cluster">
<title>cluster_AppModule_imports</title>
<polygon fill="none" stroke="black" points="16,-78 16,-130 160,-130 160,-78 16,-78"/>
</g>
<g id="clust9" class="cluster">
<title>cluster_AppModule_bootstrap</title>
<polygon fill="none" stroke="black" points="364,-208 364,-260 488,-260 488,-208 364,-208"/>
</g>
<!-- AppComponent -->
<g id="node1" class="node">
<title>AppComponent</title>
<polygon fill="#ffffb3" stroke="black" points="780.94,-122 675.06,-122 675.06,-86 780.94,-86 780.94,-122"/>
<text text-anchor="middle" x="728" y="-99.8" font-family="Times,serif" font-size="14.00">AppComponent</text>
</g>
<!-- AppModule -->
<g id="node5" class="node">
<title>AppModule</title>
<polygon fill="#8dd3c7" stroke="black" points="467.66,-187 464.66,-191 443.66,-191 440.66,-187 384.34,-187 384.34,-151 467.66,-151 467.66,-187"/>
<text text-anchor="middle" x="426" y="-164.8" font-family="Times,serif" font-size="14.00">AppModule</text>
</g>
<!-- AppComponent&#45;&gt;AppModule -->
<g id="edge1" class="edge">
<title>AppComponent&#45;&gt;AppModule</title>
<path fill="none" stroke="black" d="M728,-122.28C728,-143.32 728,-175 728,-175 728,-175 477.67,-175 477.67,-175"/>
<polygon fill="black" stroke="black" points="477.67,-171.5 467.67,-175 477.67,-178.5 477.67,-171.5"/>
</g>
<!-- ClientListComponent -->
<g id="node2" class="node">
<title>ClientListComponent</title>
<polygon fill="#ffffb3" stroke="black" points="657.83,-122 520.17,-122 520.17,-86 657.83,-86 657.83,-122"/>
<text text-anchor="middle" x="589" y="-99.8" font-family="Times,serif" font-size="14.00">ClientListComponent</text>
</g>
<!-- ClientListComponent&#45;&gt;AppModule -->
<g id="edge2" class="edge">
<title>ClientListComponent&#45;&gt;AppModule</title>
<path fill="none" stroke="black" d="M589,-122.02C589,-139.37 589,-163 589,-163 589,-163 477.98,-163 477.98,-163"/>
<polygon fill="black" stroke="black" points="477.98,-159.5 467.98,-163 477.98,-166.5 477.98,-159.5"/>
</g>
<!-- CreateClientComponent -->
<g id="node3" class="node">
<title>CreateClientComponent</title>
<polygon fill="#ffffb3" stroke="black" points="502.09,-122 349.91,-122 349.91,-86 502.09,-86 502.09,-122"/>
<text text-anchor="middle" x="426" y="-99.8" font-family="Times,serif" font-size="14.00">CreateClientComponent</text>
</g>
<!-- CreateClientComponent&#45;&gt;AppModule -->
<g id="edge3" class="edge">
<title>CreateClientComponent&#45;&gt;AppModule</title>
<path fill="none" stroke="black" d="M426,-122.11C426,-122.11 426,-140.99 426,-140.99"/>
<polygon fill="black" stroke="black" points="422.5,-140.99 426,-150.99 429.5,-140.99 422.5,-140.99"/>
</g>
<!-- UpdateClientComponent -->
<g id="node4" class="node">
<title>UpdateClientComponent</title>
<polygon fill="#ffffb3" stroke="black" points="331.98,-122 176.02,-122 176.02,-86 331.98,-86 331.98,-122"/>
<text text-anchor="middle" x="254" y="-99.8" font-family="Times,serif" font-size="14.00">UpdateClientComponent</text>
</g>
<!-- UpdateClientComponent&#45;&gt;AppModule -->
<g id="edge4" class="edge">
<title>UpdateClientComponent&#45;&gt;AppModule</title>
<path fill="none" stroke="black" d="M254,-122.02C254,-139.37 254,-163 254,-163 254,-163 373.92,-163 373.92,-163"/>
<polygon fill="black" stroke="black" points="373.92,-166.5 383.92,-163 373.92,-159.5 373.92,-166.5"/>
</g>
<!-- AppComponent  -->
<g id="node7" class="node">
<title>AppComponent </title>
<polygon fill="#80b1d3" stroke="black" points="480.44,-252 371.56,-252 371.56,-216 480.44,-216 480.44,-252"/>
<text text-anchor="middle" x="426" y="-229.8" font-family="Times,serif" font-size="14.00">AppComponent </text>
</g>
<!-- AppModule&#45;&gt;AppComponent  -->
<g id="edge6" class="edge">
<title>AppModule&#45;&gt;AppComponent </title>
<path fill="none" stroke="black" stroke-dasharray="1,5" d="M426,-187.11C426,-187.11 426,-205.99 426,-205.99"/>
<polygon fill="black" stroke="black" points="422.5,-205.99 426,-215.99 429.5,-205.99 422.5,-205.99"/>
</g>
<!-- AppRoutingModule -->
<g id="node6" class="node">
<title>AppRoutingModule</title>
<polygon fill="#8dd3c7" stroke="black" points="152.27,-122 149.27,-126 128.27,-126 125.27,-122 23.73,-122 23.73,-86 152.27,-86 152.27,-122"/>
<text text-anchor="middle" x="88" y="-99.8" font-family="Times,serif" font-size="14.00">AppRoutingModule</text>
</g>
<!-- AppRoutingModule&#45;&gt;AppModule -->
<g id="edge5" class="edge">
<title>AppRoutingModule&#45;&gt;AppModule</title>
<path fill="none" stroke="black" d="M88,-122.28C88,-143.32 88,-175 88,-175 88,-175 374.22,-175 374.22,-175"/>
<polygon fill="black" stroke="black" points="374.22,-178.5 384.22,-175 374.22,-171.5 374.22,-178.5"/>
</g>
</g>
</svg>
